<svg viewBox="0 0 100 100" xmlns="http://www.w3.org/2000/svg">
  <defs>
    <clipPath id="circleClip">
      <circle cx="50" cy="50" r="48" />
    </clipPath>
  </defs>

  <!-- Outer border -->
  <circle cx="50" cy="50" r="48" fill="none" stroke="#ffffff" stroke-width="5" />

  <g clip-path="url(#circleClip)">
    <!-- Middle wave -->
    <path d="M -10 60 Q 30 10 70 30 T 110 50 L 110 110 L -10 110 Z" fill="none" stroke="#ffffff" stroke-width="3" />

    <!-- Bottom wave -->
    <path d="M -10 65 Q 40 30 80 55 T 110 70 L 110 110 L -10 110 Z" fill="none" stroke="#ffffff" stroke-width="3" />

    <!-- Scatter plot dots -->
    <circle cx="20" cy="20" r="2.5" fill="#ffffff" />
    <circle cx="25" cy="15" r="3" fill="#ffffff" />
    <circle cx="35" cy="10" r="2.5" fill="#ffffff" />
    <circle cx="45" cy="12" r="3" fill="#ffffff" />
    <circle cx="55" cy="8" r="4" fill="#ffffff" />
    <circle cx="65" cy="15" r="2.5" fill="#ffffff" />
    <circle cx="75" cy="10" r="3" fill="#ffffff" />
    <circle cx="30" cy="25" r="2.5" fill="#ffffff" />
    <circle cx="40" cy="20" r="3" fill="#ffffff" />
    <circle cx="50" cy="18" r="2" fill="#ffffff" />
    <circle cx="60" cy="22" r="2.5" fill="#ffffff" />
    <circle cx="70" cy="25" r="3" fill="#ffffff" />
    <circle cx="15" cy="30" r="2" fill="#ffffff" />
    <circle cx="25" cy="35" r="3" fill="#ffffff" />
    <circle cx="35" cy="32" r="2.5" fill="#ffffff" />
    <circle cx="80" cy="20" r="2.5" fill="#ffffff" />
    <circle cx="85" cy="25" r="2.5" fill="#ffffff" />

    <!-- Histogram bars -->
    <rect x="15" y="65" width="10" height="40" fill="none" stroke="#ffffff" stroke-width="2" />
    <rect x="25" y="58" width="10" height="50" fill="none" stroke="#ffffff" stroke-width="2" />
    <rect x="35" y="55" width="10" height="50" fill="none" stroke="#ffffff" stroke-width="2" />
    <rect x="45" y="62" width="10" height="50" fill="none" stroke="#ffffff" stroke-width="2" />
    <rect x="55" y="70" width="10" height="40" fill="none" stroke="#ffffff" stroke-width="2" />
    <rect x="65" y="75" width="10" height="30" fill="none" stroke="#ffffff" stroke-width="2" />
    <rect x="75" y="78" width="10" height="30" fill="none" stroke="#ffffff" stroke-width="2" />
  </g>
</svg>
